<mxfile host="Electron" modified="2023-09-21T17:10:39.208Z" agent="Mozilla/5.0 (Macintosh; Intel Mac OS X 10_15_7) AppleWebKit/537.36 (KHTML, like Gecko) draw.io/21.7.5 Chrome/114.0.5735.289 Electron/25.8.1 Safari/537.36" etag="QwlNLL0vOUIyxUR4W_aW" version="21.7.5" type="device">
  <diagram name="Page-1" id="I4h7jszyg8_nqT1GKkw1">
    <mxGraphModel dx="969" dy="777" grid="1" gridSize="10" guides="1" tooltips="1" connect="1" arrows="1" fold="1" page="1" pageScale="1" pageWidth="850" pageHeight="1100" math="0" shadow="0">
      <root>
        <mxCell id="0" />
        <mxCell id="1" parent="0" />
        <mxCell id="QmQq_99vlBuyFfmi1SnW-11" style="edgeStyle=orthogonalEdgeStyle;rounded=0;orthogonalLoop=1;jettySize=auto;html=1;" edge="1" parent="1" source="QmQq_99vlBuyFfmi1SnW-1" target="QmQq_99vlBuyFfmi1SnW-10">
          <mxGeometry relative="1" as="geometry" />
        </mxCell>
        <mxCell id="QmQq_99vlBuyFfmi1SnW-1" value="Incomplete" style="ellipse;whiteSpace=wrap;html=1;" vertex="1" parent="1">
          <mxGeometry x="160" y="250" width="120" height="80" as="geometry" />
        </mxCell>
        <mxCell id="QmQq_99vlBuyFfmi1SnW-8" style="edgeStyle=orthogonalEdgeStyle;rounded=0;orthogonalLoop=1;jettySize=auto;html=1;entryX=1;entryY=0.5;entryDx=0;entryDy=0;" edge="1" parent="1" source="QmQq_99vlBuyFfmi1SnW-1" target="QmQq_99vlBuyFfmi1SnW-1">
          <mxGeometry relative="1" as="geometry">
            <Array as="points">
              <mxPoint x="220" y="230" />
              <mxPoint x="330" y="230" />
              <mxPoint x="330" y="290" />
            </Array>
          </mxGeometry>
        </mxCell>
        <mxCell id="QmQq_99vlBuyFfmi1SnW-9" value="Name Input&lt;br&gt;Card Number Input&lt;br&gt;Expiration Month Input&lt;br&gt;Expiration Year Input&lt;br&gt;CVC Input" style="text;html=1;strokeColor=none;fillColor=none;align=center;verticalAlign=middle;whiteSpace=wrap;rounded=0;" vertex="1" parent="1">
          <mxGeometry x="200" y="140" width="153.33" height="90" as="geometry" />
        </mxCell>
        <mxCell id="QmQq_99vlBuyFfmi1SnW-10" value="Complete" style="ellipse;shape=doubleEllipse;whiteSpace=wrap;html=1;" vertex="1" parent="1">
          <mxGeometry x="153.34" y="420" width="133.33" height="80" as="geometry" />
        </mxCell>
        <mxCell id="QmQq_99vlBuyFfmi1SnW-12" value="Submit Form [All Fields Valid]" style="text;html=1;align=center;verticalAlign=middle;resizable=0;points=[];autosize=1;strokeColor=none;fillColor=none;" vertex="1" parent="1">
          <mxGeometry x="230" y="360" width="180" height="30" as="geometry" />
        </mxCell>
      </root>
    </mxGraphModel>
  </diagram>
</mxfile>
